<svg id="_イヤー_1" xmlns="http://www.w3.org/2000/svg" viewBox="0 0 491.62 60"><path d="M48.52 6.09c.29 1.28 1.41 2.98 0 4.11-2.12 1.7-2.27 4.11-2.83 6.37 8.08-.14 17.98-2.13 26.19-.28-.28 1.7-2.97 2.68-2.97 4.81-6.66 4.96-15.57 0-22.79 3.41l-1 .99.85 19.81c2.4 6.38 8.08 2.27 13.17 3.12 4.39-.43 7.64-3.4 9.91-7.22h.86c.42 1.27-.86 2.41-1 3.68-.99 4.25-.85 9.35-5.09 11.62-5.81 2.25-12.75 1.55-18.41-.43-8.78-6.38-5.39-16.72-6.94-26.05 0-8.64.28-17.57-1.28-25.77l-1.69-1.7C35.78.86 37.76.43 39.04.01c3.83.42 6.23 4.25 9.49 6.09M29.55 7.93c-3.68 6.22-.43 13.6-1.69 20.81l-.29 25.77c-.29 1.56-1.56 3.54-3.11 3.54-1.56-.28-2.27-2.4-2.98-3.82-.43-1.84.86-4.39-.99-5.53-5.38 1.56-10.62 3.97-14.3 8.93-2.69.55-3.96-1.85-5.39-3.4-1.7-2.27-.14-5.24-.28-7.94 6.65 1.83 12.75-2.54 18.7-5.09 1.69-.71 2.12-2.69 2.25-3.97-.71-4.67.29-9.2-.85-13.32l-.42-.56c-5.24.99-11.05.85-15.3 4.11-1.7.7-1.7-1.15-2.54-1.7-.29-3.26.41-6.38 2.54-8.5 4.53 1.69 9.49 0 14.44.57 1.56-1.28 1.41-3.54 1.13-5.39 1.99-4.39-8.63-9.2.14-10.89 3.97.14 7.08 3.26 8.92 6.37m212.5-3.34c1.59 3.49-4.12 6.98-.47 9.53l9.04.32c.63.95.33 2.22-.48 3.02-3.18 3.81-12.37-.79-10 7.13l2.22 1.44 11.11-.16c.63 1.57-.31 3.33-1.74 4.44-2.54 2.37-8.57-.32-8.73 4.27 4.44 5.09 10.47 9.53 17.3 10.01 1.9 2.85-1.6 4.28-2.86 6.35-6.66 0-11.59-4.93-16.19-9.2-.79 0-1.59.79-1.42 1.42l-.64 14.12c-.79.16-1.9.95-2.86.16l-1.43-2.22-.32-17.78-.8-.79c-6.97 3.98-10.46 19.06-20.78 12.05-.95-1.09-2.54-3.01-.95-3.81 7.93.48 13.33-5.38 18.08-11.1-2.69-6.98-15.39 3.49-13.49-6.82 1.44-2.39 3.66-.3 5.4-.3 3.97-3.02 14.76 3.16 13.18-5.72l-1.76-1.11c-4.91-.95-13.49 3.97-13.98-4.6.49-2.69-.95-6.82 1.12-9.2.96-.48 2.22-1.12 3.17-.48 2.71 2.23.48 6.99 3.66 8.58 3.01-.95 6.02 2.06 7.45-1.42.47-3.18-1.43-5.89-.79-8.89 2.22-2.06 6.03-1.12 7.93.79"/><path d="M209.51 6.33c-.17 3.02-2.07 5.87-.63 8.88 2.21 2.87 6.98.33 9.2 2.23-2.06 2.85-5.55 4.28-9.2 4.28a6.191 6.191 0 00-.78 5.56c2.21 3.02 8.54 3.81 6.81 8.73-2.54 1.26-5.08-2.22-7.46-.17-1.11 6.82 1.44 14.92-1.11 21.58-.47 1.1-2.37.64-3.16 0-.95-6.35-.48-15.7-.17-22.21l-.63-.64c-5.24 4.29-7.46 16.98-16.19 12.06-.78-1.27-2.37-2.22-1.74-3.97 6.82.97 11.11-4.59 14.75-9.51 2.07-2.85 3.18-6.19 3.49-10.01-1.9-1.89-5.39-.94-7.77-.79-1.43.17-2.22 1.9-3.97 1.74-1.26-1.89 0-4.11 0-6.34 4.28-1.42 9.53.95 12.22-3.16-1.12-3.02 1.26-6.36-.79-9.06 0-1.26.79-2.05 2.05-2.37 2.06.17 4.76.78 5.08 3.17m230.77-.95c.81 2.59-3.07 6.46 1.13 7.27 3.07 1.78 10.19-2.9 8.74 3.4-2.58 3.55-4.85 7.91-8.4 11.15 1.94 3.72 9.2 4.85 7.91 9.86-3.87 2.92-5.65-2.75-8.73-3.56l-1.13 1.47c-.81 7.92 1.61 16.64-.96 24.24-.81.97-2.43.97-3.4.48-2.75-7.43.49-17.13-1.77-25.2-3.56 1.94-6.63 5.97-11.32 4.35-1.45-1.93-4.69-2.1-3.88-5.34 2.74-1.12 5.98-1.12 8.74-2.24 6.79-2.27 11.47-8.09 16-13.75l-1.94-1.12c-7.12-.66-12.92 1.28-19.23.65-.66-.98-.17-2.27-.33-3.24 3.07-3.06 8.24-1.13 12.29-2.1.81-3.07-2.12-6.63 1.44-8.73 1.63-.16 4.7-.16 4.85 2.43m33.78 1.91c.96 5.02-2.27 10.19.63 15.2 3.24.48 7.77.16 11 1.46.81 3.07-2.92 3.88-4.69 4.86-2.41 0-5.17-1.3-7.59 0-.32 6.79-1.93 13.41.33 19.87 5.16 3.73 11.31 3.56 17.77 3.41.66 3.07-1.78 4.83-4.03 5.81-6.64 1.94-11.65-4.52-18.44-3.08-4.66.66-10.16.48-13.23 4.53-3.23 0-3.4-3.88-4.69-5.97-.8-4.21 3.24-.49 4.84-2.12l11.16-3.55.8-1.62V29.12c-3.71-2.24-7.76.83-11.63-.3-.98-2.12.17-4.7 1.13-6.63 3.4.65 7.43 1.62 10.19-.81 1.61-6.47-1.3-11.96-1.61-17.45 3.05-3.55 6.29.98 8.08 3.39M307.31 4.53c1.3 2.62-1.33 5.08 0 7.39a9.37 9.37 0 005.27 1.17c3.46-2.64 4.11-6.27 5.26-9.88 1.48-1.5 2.8.48 4.27.66 1.15.98.66 2.29.18 3.61l-3.47 3.79c.17 2.13 3.95.65 2.96 3.62-2.63 5.27-9.21 3.78-14.31 4.94-.84 7.23 2.46 14.47 7.24 19.91 4.44 3.62 8.88 9.71 14.8 11.52.49.66.66 1.47.49 2.31-1.97 2.46-4.44 4.44-7.41 3.29-11.51-5.11-16.95-17.94-20.41-28.98.66-2.8.34-6.09-.82-8.55-8.41-.16-17.29-1.16-24.69 2.62-2.79.51-2.79-2.46-2.63-4.11-1.16-6.74 6.91-1.98 9.7-4.44 5.77-.49 10.71-.99 16.3-.32 2.48-1.33.66-3.97.33-5.61-.66-1.48-2.29-2.8-1.48-4.45 2.13-2.3 6.75-1.32 8.4 1.5"/><path d="M300.4 31.67c.99.33.5 1.48.65 2.14-3.12 2.46-11.35 1.14-9.54 7.41 3.63 2.3 7.25.17 11.04 1.97.49 3.12-2.97 2.47-4.44 3.61-2.97.17-6.43 1.16-9.55 2.14-5.6-.82-9.05 7.74-14.49 2.97-1.47-.82-2.64-2.47-2.14-3.96 4.61-1.48 8.72-3.78 12.83-6.24-.82-1.5.5-4.12-2.13-4.45-2.48.16-5.26.16-6.25-2.31-1.01-4.92 4.93-2.79 7.39-4.11 5.77.66 11.52-.32 16.63.82m77.62-24.04c10.15 5.23 18.72 14.43 30.77 14.75.8.95 1.28 2.22.33 3.17-2.07 2.54-4.92 3.32-7.61 3.96l-4.29-1.1c-7.47-6.66-14.91-13.32-23.49-17.45-8.88 7.46-18.4 14.76-29.66 17.14-2.7-.48-5.24-2.86-6.35-5.39-.16-2.22 2.85-1.74 4.28-2.22 12.06-.95 22.69-6.35 30.95-15.4 2.53-.78 2.85 2.38 5.07 2.55"/><path d="M386.27 23.81c1.27.62 1.45 2.37.97 3.49l-2.38 1.43c-7.62-.65-16.18 0-23.96.62-1.29-1.27-1.42-2.69-.65-4.13 1.12-.95 2.24-1.42 3.5-1.59l22.52.17zm12.86 10.93c.95 1.75-.8 3.97-1.75 5.72-5.56 4.75-11.58-1.75-18.24-.63l-6.51-.32c-2.07 4.28-5.09 8.09-7.46 12.05l17.92.63c1.42-.3 1.12-1.42.63-2.37-.78-1.9-4.12-3.49-2.22-6.03 5.25-2.39 6.81 6.03 10.16 8.88.62 1.44.31 3.49-1.44 3.97l-33.32-.16c-3.17-1.9-.17-4.29 1.42-5.71 2.7-3.49 5.89-6.67 7.47-10.63-5.57-2.07-11.27 1.27-16.97.79-1.27-1.1-.95-2.85-.18-4.27l1.6-1.59c15.08-.48 30.78-.65 45.69 0 .95-.65 2.23-.95 3.18-.33M105.46 3.6c3.26.29 5.95 1.56 8.63 2.84.15 1.98-2.4 1.98-3.53 2.83-3.54 1.27-7.93.57-11.18 2.55-2.13.14-2.55-1.98-3.41-3.26-.71-2.69.14-5.24 1.84-7.23.99-.84 1.57 0 2.83-.28.85 2.13 2.97 2.27 4.82 2.55m6.09 18.42c.99 1.98-1.71 3.54-2.83 4.53-3.68 1.13-7.79.99-10.91 3.12-2.69.7-3.25-1.99-4.38-3.54-.43-2.13-1.42-4.54.85-6.1 5.1 1.42 12.04.15 17.27 1.99m.85 11.17c-.14 7.23-5.09 13.31-9.77 18.7 0 1.85-.57 5.09-3.25 3.54-4.25-2.4-4.68-7.22-6.09-11.17 6.66-1.85 12.88-5.81 17.84-11.06h1.28z"/><path d="M159.69 11.82l1.27-2.85c-1.13-3.24-4.24-6.07-7.78-6.35-9.35 2.4-20.39.84-30.16 1.27-2.4.28-4.81-1.85-6.8-.29-.71 1.99.57 3.83 1.29 5.67 1.26 12.04 2.68 25.63-5.1 35.12-2.69 3.97.56 7.92 1.69 11.46.71 0 1.57.28 2.13-.14 5.1-7.21 5.67-16.29 7.08-25.06 4.11 5.8-1.27 16.57 6.66 19.98 2.83-1.99 5.95-3.13 9.35-3.41 3.26-.99 1.99 4.11 5.39 2.83 5.38-2.83 2.97-9.63 3.54-14.3l2.13-1.99c1.97-3.11-2.28-4.82-3.54-7.22-1-.99-2.27-.14-3.12.57l-20.39.56v-3.68c1.14-2.69 3.69.99 6.38-.14 5.1-3.12 12.18-.57 17.56-1.28 2.26-1.13 3.96-3.68 3.54-5.93l-10.91-1c-5.39.15-10.76 1-16 .29-.29-1.13-.85-4.11.99-4.68 8.78-.99 17.27-.99 26.2-.99l1.55 1.28c.14 12.16.85 24.91-.57 36.66.57 3.4 1.7 7.65 4.96 9.49 1.98-.57 3.39-1.84 3.55-4.11-1.99-14.16-.57-27.19-.86-41.77m-28.74 22.37c3.11-.14 6.65-1.56 10.19-.71l.56 1.99c-1.12 1.84 1.28 6.08-2.12 5.66l-7.93.57c-1.42-2.41-.43-4.98-.71-7.51"/></svg>