<svg id="圖層_1" data-name="圖層 1" xmlns="http://www.w3.org/2000/svg" viewBox="0 0 128 128"><defs><style>.cls-1{fill:#fff;}</style></defs><path class="cls-1" d="M125,36.17c-2.85,9.87-5.73,19.75-8.55,29.64-1.3,4.59-2.46,9.22-3.76,13.82-2,7.15-5.62,9.92-13.14,9.94-17.37,0-34.74,0-52.1,0H44.05l1.73,6.91H96.11c1.75,0,3.5-.06,5.25,0,7.92.36,13.88,7.06,13,14.61a13.09,13.09,0,0,1-15.3,11.52c-8-1.48-12.48-8.94-10.25-17,.29-1,.68-2.06,1.1-3.32H57.77c.43,1.41.86,2.65,1.17,3.93a13.14,13.14,0,0,1-23.5,10.89,12.65,12.65,0,0,1,2-16.91c2.22-2,2.34-3.51,1.63-6.09C31.92,68.08,24.82,42,18,15.79c-1.07-4.06-2.65-6-7-5.36-2.48.38-5.06.07-7.93.07V4.84c5,0,10-.29,14.8.18,1.46.14,3.4,2.19,3.92,3.76,1.9,5.73,3.48,11.59,4.81,17.49.76,3.35,2.18,4.5,5.75,4.48q43-.24,86.05,0c2.24,0,4.47,1,6.71,1.6Zm-95.8.42c4,14.33,7.8,27.92,11.41,41.58,1.13,4.28,3.5,6,7.84,5.93q25.55-.18,51.09,0c4.42,0,6.71-1.79,7.79-6,3-11.71,6.15-23.37,9.25-35,.55-2.07,1.1-4.15,1.71-6.47ZM108.8,110a7.48,7.48,0,0,0-7.4-7.72,7.68,7.68,0,0,0-7.61,7.6,7.78,7.78,0,0,0,7.26,7.51A7.56,7.56,0,0,0,108.8,110Zm-62.75,7.4a7.6,7.6,0,0,0,7.64-7.5,7.51,7.51,0,0,0-7-7.6,7.56,7.56,0,0,0-.63,15.1Z"/><polygon class="cls-1" points="24.83 33.14 40.09 84.11 44.36 86.85 102.65 86.85 111.2 77.09 121.27 33.14 24.83 33.14"/><circle class="cls-1" cx="46.27" cy="109.79" r="9.77"/><circle class="cls-1" cx="101.3" cy="109.79" r="9.77"/></svg>