<svg id="圖層_1" data-name="圖層 1" xmlns="http://www.w3.org/2000/svg" viewBox="0 0 128 128"><defs><style>.cls-1{fill:#fdbf47;}.cls-2{fill:#7457bd;}.cls-3{fill:#bc8c2d;}.cls-4{fill:#08a258;}.cls-5{fill:#0abf69;}.cls-6{fill:#c5b8da;}.cls-7{fill:#fbbf4a;}.cls-8{fill:#775cc1;}.cls-9{fill:#483773;}.cls-10{fill:#bfb2d8;}.cls-11{fill:#c0b4e0;}.cls-12{fill:#fbfafc;}.cls-13{fill:#7357be;}.cls-14{fill:#664db2;}.cls-15{fill:#15175d;}</style></defs><path class="cls-1" d="M94.52,92c-.1.4-.2.79-.31,1.18-1.94,1-3.4-.22-4.93-1.11l-35-20.32L33,59.42c0,5.12.17,9.54-.06,14a5.27,5.27,0,0,0,3.21,5.68c6.17,3.29,12.13,7,18.2,10.48a10.12,10.12,0,0,1,3.47,2.92c.48.7,1.3,1.36.77,2.37-.63,1.21-1.64.9-2.66.57-.6-.19-1.23-.3-1.85-.44-7.31-4.34-14.56-8.79-22-13-2.52-1.42-3.65-3-3.55-6,.23-6.6-.11-13.23.15-19.83.13-3.2-.92-5-3.66-6.69C18.94,45.78,17.3,41.22,19.21,35c1.71-5.56,5.51-8.11,11.28-7.11,2.2.38,3.14-.13,4.14-2.06,3.93-7.58,10.08-9.23,17.42-4.77,2.22,1.34,3.88,1.88,5.85-.63,2.35-3,6-3.06,9.47-2.75l-1.65,5.48c-8.15,2.43-11,6.61-10.19,15.14L53.69,40a7.61,7.61,0,0,0-5.38,1.6,14.36,14.36,0,0,1-9.57,3.84c-3.93.16-4.93,4.25-6.05,7.12-.82,2.11,2.25,2.64,3.74,3.51C52,65.2,67.55,74.37,83.28,83.24c3.43,1.93,6.43,5.24,11,4.83.09,1.06.17,2.12.26,3.17A.76.76,0,0,0,94.52,92Z"/><path class="cls-2" d="M54.08,95c.62.14,1.25.25,1.85.44,1,.33,2,.64,2.66-.57.53-1-.29-1.67-.77-2.37a10.12,10.12,0,0,0-3.47-2.92c-6.07-3.49-12-7.19-18.2-10.48a5.27,5.27,0,0,1-3.21-5.68c.23-4.41.06-8.83.06-14L54.25,71.71,89.28,92c1.53.89,3,2.09,4.93,1.11q.11,3.57.2,7.14a61.21,61.21,0,0,0,0,10.83,4.74,4.74,0,0,1-.16.65c-1.42.35-2.42-.54-3.51-1.17-6.06-3.49-12.09-7-18.2-10.44-3.33-1.87-4.39-1.26-5,2.47-1,4.1-2,4.76-5.71,3.21-2.9-1.22-5.77-2.53-8.56-4A4.14,4.14,0,0,1,51,97.74C51.15,96,52.4,95.16,54.08,95Z"/><path class="cls-3" d="M94.24,88.07c-4.53.41-7.53-2.9-11-4.83C67.55,74.37,52,65.2,36.43,56c-1.49-.87-4.56-1.4-3.74-3.51,1.12-2.87,2.12-7,6.05-7.12a14.36,14.36,0,0,0,9.57-3.84A7.61,7.61,0,0,1,53.69,40c-3,4.25-.47,7.89,1.25,11.63.08,1.62.29,3.25.23,4.86-.09,2.65.31,5.12,2.83,6.48a54.47,54.47,0,0,0,5.87,2.36c4.89,6.27,10.7,7.36,17.45,3.07h4.5l.69-.06c5.17,0,5.84-4.16,7-7.78l.92-.16q.07,8.64.16,17.26a36.28,36.28,0,0,0,0,9.37Z"/><path class="cls-4" d="M65.72,23.15l1.65-5.48c1.41-1.59,2.9-3.11,4.2-4.78,1.66-2.13,3.12-2.56,4.89-.12,1.46,2,3.13,3.87,4.7,5.8.32,1.92,1.32,3.72,1,5.75-.9,1.06-1.72,2.2-2.71,3.16-2.23,2.18-4.19,4.47-4.37,7.77l-2.94,3C67.77,34.2,65.14,29.35,65.72,23.15Z"/><path class="cls-5" d="M75.09,35.25c.18-3.3,2.14-5.59,4.37-7.77,1-1,1.81-2.1,2.71-3.16,3.84.22,7.62-1.26,11.48-.37,6.59,3,6.59,3,3.35,9.93-.21.45-.38.92-.57,1.38l-3.1,3.13C86.39,31.81,82.78,31.18,75.09,35.25Z"/><path class="cls-6" d="M93.33,38.39l3.1-3.13c1.07.83.87,2,.82,3.14A18.5,18.5,0,0,0,99,47.53c1.32,2.75,1.18,5.69-1.5,7.88a8.77,8.77,0,0,0-3.07,5l-.92.16c-1.31-.75-2.37.27-3.52.54a11.11,11.11,0,0,1-11.78-4.44c1.27,0,2.54.13,3.81.15,6.31.12,10.42-3.13,12.35-9.15C95.5,44.26,93.89,41.45,93.33,38.39Z"/><path class="cls-7" d="M67.55,102.62c.59-3.73,1.65-4.34,5-2.47,6.11,3.41,12.14,6.95,18.2,10.44,1.09.63,2.09,1.52,3.51,1.17,0,1.47.69,3.11-.86,4.19s-2.85-.17-4.13-.9Q78.39,108.86,67.55,102.62Z"/><path class="cls-8" d="M45,101.23c-3.64-.09-6.85-2.28-6.74-4.55.12-2.57,2.08-2.49,3.87-2.45,3.19.08,6.79,2.54,6.64,4.62C48.62,101.36,46.6,101.18,45,101.23Z"/><path class="cls-7" d="M93.65,24c-3.86-.89-7.64.59-11.48.37.31-2-.69-3.83-1-5.75C86.23,17.27,90.62,19.16,93.65,24Z"/><path class="cls-6" d="M94.4,111.11a61.21,61.21,0,0,1,0-10.83A21.59,21.59,0,0,1,94.4,111.11Z"/><path class="cls-6" d="M94.67,87a36.28,36.28,0,0,1,0-9.37A25.89,25.89,0,0,1,94.67,87Z"/><path class="cls-6" d="M94.52,92a.76.76,0,0,1,0-.72,3.47,3.47,0,0,1,.2.5C94.71,91.8,94.58,91.89,94.52,92Z"/><path class="cls-9" d="M65.72,23.15c-.58,6.2,2,11.05,6.43,15.15a35.94,35.94,0,0,0-1.81,8.58l-2.9.69a20.8,20.8,0,0,1-8.39-3.13l-3.52-6.15C54.75,29.76,57.57,25.58,65.72,23.15Z"/><path class="cls-10" d="M55.53,38.29l3.52,6.15a20.74,20.74,0,0,0-4.11,7.16c-1.72-3.74-4.3-7.38-1.25-11.63Z"/><path class="cls-11" d="M67.44,47.57l2.9-.69a11.65,11.65,0,0,1,1.72,4.28c-2,8.44,1.07,14.13,9.26,17.21-6.75,4.29-12.56,3.2-17.45-3.07C61.5,58.67,62.13,52.65,67.44,47.57Z"/><path class="cls-12" d="M81.32,68.37c-8.19-3.08-11.25-8.77-9.26-17.21a37.9,37.9,0,0,0,6.19,5.48A11.11,11.11,0,0,0,90,61.08c1.15-.27,2.21-1.29,3.52-.54-1.2,3.62-1.87,7.74-7,7.78a.83.83,0,0,0-.69.06Z"/><path class="cls-12" d="M67.44,47.57c-5.31,5.08-5.94,11.1-3.57,17.73A54.47,54.47,0,0,1,58,62.94c-2.52-1.36-2.92-3.83-2.83-6.48.06-1.61-.15-3.24-.23-4.86a20.74,20.74,0,0,1,4.11-7.16A20.8,20.8,0,0,0,67.44,47.57Z"/><path class="cls-11" d="M85.82,68.38a.83.83,0,0,1,.69-.06Z"/><path class="cls-13" d="M78.25,56.64a37.9,37.9,0,0,1-6.19-5.48,11.65,11.65,0,0,0-1.72-4.28,35.94,35.94,0,0,1,1.81-8.58l2.94-3c7.69-4.07,11.3-3.44,18.24,3.14.56,3.06,2.17,5.87,1.08,9.25-1.93,6-6,9.27-12.35,9.15C80.79,56.77,79.52,56.69,78.25,56.64Zm8.33-18.29,0,0c-3.48-4.07-4.06-4.07-6.15,0l-.73.52c-3.76,2.44-3.76,2.44,0,5.59l.68.78c1.84,2.89,3.69,3,5.53,0l.68-.78C90.19,41.44,90.19,41.44,86.58,38.35Z"/><path class="cls-14" d="M80.38,45.26l-.68-.78,0-5.59.73-.52h6.15l0,0c0,2,0,4.08,0,6.13l-.68.78A5.67,5.67,0,0,0,80.38,45.26Z"/><path class="cls-15" d="M86.61,38.38H80.46C82.55,34.31,83.13,34.31,86.61,38.38Z"/><path class="cls-15" d="M80.38,45.26a5.67,5.67,0,0,1,5.53,0C84.07,48.23,82.22,48.15,80.38,45.26Z"/><path class="cls-15" d="M86.59,44.48c0-2,0-4.09,0-6.13C90.19,41.44,90.19,41.44,86.59,44.48Z"/><path class="cls-15" d="M79.73,38.89l0,5.59C76,41.33,76,41.33,79.73,38.89Z"/></svg>